<svg width="16" height="16" viewBox="0 0 16 16" fill="none" xmlns="http://www.w3.org/2000/svg">
<path d="M6.0063 14.1666C5.87964 14.1666 5.75297 14.12 5.65297 14.02L2.31297 10.68C2.11964 10.4866 2.11964 10.1666 2.31297 9.97331C2.5063 9.77997 2.8263 9.77997 3.01964 9.97331L6.35964 13.3133C6.55297 13.5066 6.55297 13.8266 6.35964 14.02C6.25964 14.1133 6.13297 14.1666 6.0063 14.1666Z" fill="#3A354E"/>
<path d="M6.00684 14.1666C5.7335 14.1666 5.50684 13.94 5.50684 13.6666V2.33331C5.50684 2.05998 5.7335 1.83331 6.00684 1.83331C6.28017 1.83331 6.50684 2.05998 6.50684 2.33331V13.6666C6.50684 13.94 6.28017 14.1666 6.00684 14.1666Z" fill="#3A354E"/>
<path d="M13.3403 6.17336C13.2136 6.17336 13.087 6.12669 12.987 6.02669L9.64695 2.68669C9.45362 2.49336 9.45362 2.17336 9.64695 1.98002C9.84029 1.78669 10.1603 1.78669 10.3536 1.98002L13.6936 5.32002C13.887 5.51336 13.887 5.83336 13.6936 6.02669C13.5936 6.12669 13.467 6.17336 13.3403 6.17336Z" fill="#3A354E"/>
<path d="M9.99316 14.1666C9.71983 14.1666 9.49316 13.94 9.49316 13.6666V2.33331C9.49316 2.05998 9.71983 1.83331 9.99316 1.83331C10.2665 1.83331 10.4932 2.05998 10.4932 2.33331V13.6666C10.4932 13.94 10.2732 14.1666 9.99316 14.1666Z" fill="#3A354E"/>
</svg>
